<?xml version="1.0" encoding="utf-8"?><svg xmlns="http://www.w3.org/2000/svg" xmlns:xlink="http://www.w3.org/1999/xlink"><symbol viewBox="0 0 103 94" fill="none" id="phone" xmlns="http://www.w3.org/2000/svg"><path d="M24.111 0S-12.619 26.139 4.59 63.199c17.21 37.06 88.077 32.755 96.147-3.309 8.071-36.064-15.29-48.31-41.155-44.335C33.715 19.53 24.111 0 24.111 0z" fill="#C7D166"/><path d="M44.79 88.044c-.21 0-.386 0-.547-.008-6.039-.12-7.107-8.11-7.155-8.456L26.761 18.124c-.016-.096-.184-1.003-.41-2.288-.304-1.759-.73-4.305-1.02-6.473-.521-3.87 3.751-5.661 6.36-6.11a.89.89 0 01.153-.017c.314-.024 30.86-1.43 35.454-1.726 5.686-.338 7.083 6.857 7.14 7.163.112.658 10.864 64.05 11.86 70.064.377 2.249 0 4.096-1.116 5.493-1.695 2.112-4.449 2.288-4.561 2.288-1.237.065-29.464 1.526-35.832 1.526zM32.044 5.63c-.554.113-4.641 1.052-4.32 3.405.289 2.128.706 4.65 1.004 6.384.233 1.35.401 2.273.401 2.273v.016l10.335 61.528c.016.112.86 6.32 4.818 6.392 4.963.097 35.888-1.502 36.201-1.518.008 0 1.815-.136 2.827-1.405.666-.835.867-2.04.61-3.581A85711.418 85711.418 0 0072.061 9.09c0-.032-1.045-5.396-4.602-5.18-4.497.298-33.575 1.639-35.414 1.72z" fill="#231F20"/><path d="M28.351 16.583a1.212 1.212 0 01-1.204-1.14 1.21 1.21 0 011.14-1.27l45.58-2.497a1.21 1.21 0 011.269 1.14 1.21 1.21 0 01-1.14 1.27l-45.58 2.497h-.065zm9.789 59.68a1.212 1.212 0 01-1.205-1.14 1.21 1.21 0 011.14-1.269l45.58-2.497a1.21 1.21 0 011.27 1.14 1.21 1.21 0 01-1.14 1.269l-45.58 2.497h-.065z" fill="#231F20"/><path d="M38.14 93.77h-.321c-4.296-.048-5.902-4.673-6.151-7.115l-2.425-14.671-4.963-30.515c-.153-.843-3.903-21.313-4.409-24.428-.53-3.277.362-4.578.771-4.987l4.955-5.63a1.207 1.207 0 011.807 1.598l-4.987 5.662c-.016.016-.024.032-.04.04-.065.096-.466.843-.129 2.931.498 3.092 4.369 24.187 4.409 24.404l4.97 30.531 2.434 14.744c.016.12.57 4.987 3.79 5.02 4.304.047 33.599-1.101 33.896-1.117a.978.978 0 01.217.008c1.028.144 3.967.257 5.236-.948 1.91-1.806 5.412-5.894 5.452-5.942a1.208 1.208 0 011.831 1.574c-.144.168-3.621 4.224-5.621 6.119-2.208 2.096-6.264 1.71-7.123 1.598-2.184.096-28.435 1.124-33.599 1.124z" fill="#231F20"/><path d="M42.685 75.67a1.19 1.19 0 01-1.132-.804c-.088-.249-.795-2.57.538-7.21 1.494-5.205 5.983-9.292 7.324-10.424 2.096-1.767 6.304-2.37 9.468-2.562 2.658-.169 8.4 1.622 10.937 4.69 2.096 2.53 3.606 4.36 4.65 6.4 1.212 2.36 2.071 5.854 2.232 6.529a1.2 1.2 0 01-.9 1.445 1.196 1.196 0 01-1.445-.9c-.41-1.734-1.189-4.344-2.024-5.982-.883-1.726-2.168-3.308-4.368-5.966-1.895-2.297-6.746-3.943-8.93-3.823-3.846.233-6.858.98-8.062 2-.86.722-5.22 4.577-6.561 9.243-1.116 3.894-.57 5.765-.57 5.781a1.219 1.219 0 01-.78 1.51 1.049 1.049 0 01-.377.072z" fill="#231F20"/><path d="M55.028 57.063c-7.573 0-13.732-6.111-13.732-13.62 0-7.508 6.16-13.619 13.732-13.619 7.573 0 13.732 6.111 13.732 13.62 0 7.508-6.16 13.62-13.732 13.62zm0-24.83c-6.248 0-11.323 5.027-11.323 11.21 0 6.184 5.083 11.211 11.323 11.211 6.248 0 11.323-5.027 11.323-11.21 0-6.184-5.075-11.21-11.323-11.21zm24.075 38.313a.793.793 0 01-.787-.667l-9.259-53.048a.813.813 0 01.65-.931.809.809 0 01.932.65l9.259 53.048a.813.813 0 01-.65.932c-.057.008-.105.016-.145.016zM62.954 83.314c-2.193 0-3.983-1.574-3.983-3.509 0-1.935 1.782-3.51 3.983-3.51 2.192 0 3.975 1.575 3.975 3.51 0 1.935-1.783 3.51-3.975 3.51zm0-5.404c-1.31 0-2.377.851-2.377 1.903 0 1.044 1.068 1.903 2.377 1.903 1.309 0 2.369-.85 2.369-1.903 0-1.052-1.06-1.903-2.37-1.903zm11.009 14.423a.831.831 0 01-.385-.096.813.813 0 01-.321-1.093l3.308-6.047a.81.81 0 011.092-.32c.386.216.53.698.322 1.091l-3.309 6.047a.81.81 0 01-.707.418zm-3.445-.033a.809.809 0 01-.699-1.213l3.438-5.845a.809.809 0 011.1-.29.809.809 0 01.289 1.1L71.209 91.9a.786.786 0 01-.69.401zm-3.581.136a.805.805 0 01-.682-1.229l3.653-5.821a.805.805 0 011.365.851L67.62 92.06a.796.796 0 01-.683.377zm-4.867.186a.804.804 0 01-.675-1.237l3.727-5.774a.804.804 0 011.108-.24c.37.24.482.738.241 1.108l-3.726 5.773a.793.793 0 01-.675.37zm-3.051.112a.78.78 0 01-.393-.105.805.805 0 01-.314-1.092L61.5 85.82a.805.805 0 011.092-.314c.386.217.53.707.314 1.093l-3.188 5.717a.782.782 0 01-.7.418zm-4.449.16a.77.77 0 01-.41-.112.808.808 0 01-.28-1.1l3.372-5.686a.801.801 0 011.1-.28.801.801 0 01.281 1.1L55.261 92.5a.778.778 0 01-.69.393zm-3.91.137a.795.795 0 01-.699-1.197l3.244-5.653a.795.795 0 011.092-.297.795.795 0 01.297 1.092L51.35 92.63a.795.795 0 01-.69.402zm-3.791.12a.8.8 0 01-.682-1.213l3.316-5.508a.8.8 0 011.1-.273.8.8 0 01.273 1.1l-3.316 5.509a.807.807 0 01-.691.385zm-4.859.145a.805.805 0 01-.683-1.229l3.51-5.653a.805.805 0 011.365.851l-3.509 5.654a.814.814 0 01-.682.377zm-4.183.073a.755.755 0 01-.425-.129.796.796 0 01-.25-1.108l4.056-6.416a.796.796 0 011.108-.25c.377.234.49.732.249 1.109l-4.055 6.416a.804.804 0 01-.683.378zm-3.509-1.977a.805.805 0 01-.635-1.292l5.356-6.923a.805.805 0 011.125-.144.797.797 0 01.144 1.124l-5.356 6.922a.79.79 0 01-.634.313zm-1.454-4.054a.805.805 0 01-.642-1.293l5.42-7.091a.805.805 0 011.124-.153.805.805 0 01.153 1.125l-5.42 7.09a.787.787 0 01-.635.322zm-1.108-6.722a.8.8 0 01-.546-.217.8.8 0 01-.04-1.132l5.589-5.999a.8.8 0 111.172 1.092l-5.589 5.999a.804.804 0 01-.586.257zm-.786-4.753a.799.799 0 01-.547-.217.8.8 0 01-.04-1.132l5.573-5.991a.8.8 0 111.172 1.092l-5.573 5.99a.791.791 0 01-.586.258zm-.756-4.593a.777.777 0 01-.554-.225.8.8 0 01-.024-1.133l5.59-5.806a.8.8 0 111.156 1.109l-5.59 5.806a.766.766 0 01-.578.248zm-.859-5.301a.771.771 0 01-.538-.21.801.801 0 01-.064-1.131L34.26 58.5a.801.801 0 111.197 1.068l-5.509 6.127a.769.769 0 01-.594.273zm-.811-4.987a.791.791 0 01-.578-.249.8.8 0 01.024-1.132l5.22-5.035a.8.8 0 111.108 1.156l-5.22 5.035a.777.777 0 01-.554.225zm-.771-4.746a.801.801 0 01-.602-1.333l5.452-6.111a.801.801 0 111.197 1.068l-5.453 6.11a.787.787 0 01-.594.266zm-.715-4.36a.827.827 0 01-.498-.169.804.804 0 01-.136-1.124l5.324-6.753a.803.803 0 011.124-.137c.346.273.41.78.137 1.124l-5.324 6.754a.78.78 0 01-.627.305zm-1.092-6.722a.784.784 0 01-.57-.24.8.8 0 01.008-1.133l5.509-5.445a.793.793 0 011.132.008.8.8 0 01-.008 1.133l-5.509 5.444a.804.804 0 01-.562.233zm-.811-4.746a.758.758 0 01-.506-.185.803.803 0 01-.112-1.132l5.34-6.52a.804.804 0 111.245 1.02l-5.34 6.52a.794.794 0 01-.627.297zm-1.035-5.701a.802.802 0 01-.61-1.325l5.451-6.352a.802.802 0 111.221 1.043l-5.452 6.352a.81.81 0 01-.61.282zm-1.029-5.653a.83.83 0 01-.53-.193.801.801 0 01-.08-1.132l5.525-6.368a.801.801 0 111.212 1.052l-5.524 6.368a.8.8 0 01-.603.273zm-.979-5.414a.777.777 0 01-.554-.224.8.8 0 01-.024-1.132l5.66-5.886a.8.8 0 111.157 1.108l-5.661 5.886a.792.792 0 01-.578.249zm-.787-4.44a.779.779 0 01-.579-.249.8.8 0 01.024-1.132l5.766-5.517a.8.8 0 111.108 1.156l-5.765 5.517a.805.805 0 01-.554.225z" fill="#231F20"/></symbol><symbol viewBox="0 0 104 98" fill="none" id="smile" xmlns="http://www.w3.org/2000/svg"><path d="M24.497 0S-12.822 26.558 4.663 64.211c17.485 37.654 89.488 33.28 97.687-3.361 8.208-36.642-15.542-49.085-41.822-45.046C34.248 19.834 24.498 0 24.498 0z" fill="#6ACCB2"/><path d="M37.788 90.867a1.227 1.227 0 01-1.224-1.306c.009-.13.784-13.38-6.69-14.775-1.958-.368-3.973-.547-5.923-.718-4.602-.416-8.95-.8-11.194-3.631-1.306-1.64-1.73-3.884-1.306-6.845 1.428-10.02 9.497-49.721 9.824-51.312.073-.555.669-4.414 3.427-6.52 1.5-1.15 3.336-1.558 5.441-1.231 6.462 1.003 42.909 8.558 45.397 9.08.71.058 4.683.482 6.96 3.305 1.362 1.697 1.835 3.867 1.403 6.462-1.305 7.849-10.468 51.769-10.558 52.21-.497 3.157-2.504 8.427-6.788 7.848-4.283-.587-12.287-2.872-12.622-2.97-.065-.016-5.18-1.493-7.547 1.11-2.88 3.166-7.62 8.787-7.67 8.844a1.19 1.19 0 01-.93.449zM28.782 6.87c-1.004 0-1.86.278-2.595.832-2.08 1.575-2.488 4.888-2.496 4.92a.48.48 0 01-.017.106c-.081.408-8.362 41.105-9.807 51.214-.326 2.26-.065 3.892.8 4.977 1.583 2 5.246 2.334 9.489 2.71 2.007.179 4.087.366 6.152.75 6.87 1.28 8.379 9.276 8.665 13.96 1.648-1.934 3.924-4.57 5.597-6.405 3.41-3.753 9.782-1.893 10.051-1.811.066.016 8.16 2.325 12.272 2.888 2.929.416 4.038-5.801 4.046-5.866.106-.498 9.253-44.377 10.55-52.169.31-1.868.008-3.394-.897-4.52-1.746-2.17-5.247-2.407-5.28-2.407a.742.742 0 01-.187-.024c-.392-.082-38.877-8.061-45.364-9.073a6.79 6.79 0 00-.979-.082z" fill="#231F20"/><path d="M44.903 97.516c-.31 0-.604-.114-.832-.326l-8.355-7.767a1.202 1.202 0 01-.343-.547c-1.068-3.574-6.519-5.964-7.139-6.225-.66-.18-5.613-1.542-7.604-1.942-2.472-.498-6.005-6.16-7.408-8.567a1.224 1.224 0 01.44-1.673 1.219 1.219 0 011.673.441c2.178 3.737 4.879 7.196 5.776 7.4 2.212.44 7.621 1.934 7.85 2 .04.007.09.024.13.04.285.114 6.853 2.79 8.518 7.49l7.098 6.6c1.64-2.17 5.459-6.6 9.49-6.845 3.5-.22 7.954 1.412 11.218 2.603 1.207.44 2.35.857 2.823.93l.138.024c3.297.514 7.833.416 9.163-6.372 1.746-8.86 11.635-49.892 11.733-50.308.946-3.46 1.485-8.812-.237-9.987-3.206-2.186-8.575-6.209-8.624-6.25a1.224 1.224 0 011.469-1.958c.057.041 5.368 4.031 8.534 6.185 3.753 2.562 1.68 10.957 1.224 12.614-.09.375-9.97 41.358-11.7 50.17-.89 4.511-3.68 9.61-11.945 8.322l-.139-.025c-.71-.106-1.787-.506-3.288-1.053-2.88-1.052-7.245-2.643-10.223-2.455-3.337.212-7.213 5.066-8.428 6.918a1.248 1.248 0 01-.873.547c-.041.016-.09.016-.139.016z" fill="#231F20"/><path d="M48.33 66.806c-13.079 0-23.718-10.639-23.718-23.718S35.252 19.37 48.33 19.37c13.079 0 23.718 10.64 23.718 23.718 0 13.08-10.64 23.718-23.718 23.718zm0-44.988c-11.724 0-21.27 9.538-21.27 21.27 0 11.725 9.537 21.27 21.27 21.27 11.724 0 21.27-9.537 21.27-21.27 0-11.724-9.546-21.27-21.27-21.27z" fill="#231F20"/><path d="M47.938 53.825c-.791 0-1.64-.074-2.562-.229-5.507-.938-7.318-6.74-7.514-9.676a1.218 1.218 0 011.142-1.298 1.218 1.218 0 011.297 1.143c.017.269.514 6.576 5.483 7.424 5.157.882 7.376-1.387 8.877-3.728a1.228 1.228 0 011.69-.376c.57.367.733 1.118.374 1.69-1.444 2.251-3.867 5.05-8.787 5.05zm15.714-11.447c-.66 0-1.207-.53-1.224-1.2 0-.146-.138-3.728-2.839-4.299-2.79-.587-4.43 2.178-4.504 2.3a1.226 1.226 0 01-1.672.441 1.223 1.223 0 01-.449-1.664c.106-.18 2.595-4.43 7.123-3.468 4.61.971 4.773 6.413 4.781 6.642a1.222 1.222 0 01-1.2 1.248h-.016zm-19.279-4.006c-.661 0-1.208-.53-1.224-1.2 0-.146-.139-3.728-2.84-4.299-2.782-.58-4.43 2.179-4.503 2.301a1.224 1.224 0 01-1.673.44 1.22 1.22 0 01-.449-1.664c.107-.18 2.595-4.43 7.123-3.467 4.61.97 4.773 6.412 4.781 6.641a1.222 1.222 0 01-1.199 1.248h-.016zm46.661-5.499a.766.766 0 01-.449-.139l-8.558-5.654a.806.806 0 01-.229-1.126.807.807 0 011.126-.228l8.559 5.654c.375.245.481.75.228 1.126a.793.793 0 01-.677.367zm-1.55 6.796a.85.85 0 01-.474-.147l-8.599-6.103a.812.812 0 01-.196-1.134.812.812 0 011.134-.196l8.6 6.103a.812.812 0 01-.465 1.477zm-1.64 6.838a.822.822 0 01-.514-.18l-8.216-6.69a.816.816 0 111.036-1.265l8.216 6.69c.35.286.4.8.114 1.15a.824.824 0 01-.636.294zm-1.346 5.653a.84.84 0 01-.49-.163l-8.126-6.16a.81.81 0 01-.155-1.142.81.81 0 011.142-.155l8.126 6.16a.81.81 0 01.155 1.142.843.843 0 01-.653.318zm-1.64 6.912a.823.823 0 01-.547-.213l-7.726-7a.813.813 0 111.093-1.208l7.727 7a.813.813 0 01.057 1.151.813.813 0 01-.604.27zm-2.016 7.326a.82.82 0 01-.53-.195l-7.36-6.291a.815.815 0 111.061-1.24l7.36 6.29a.815.815 0 01-.53 1.436zm-1.305 6.878a.821.821 0 01-.53-.196l-7.458-6.397a.815.815 0 111.06-1.24l7.458 6.397a.815.815 0 01.09 1.15.795.795 0 01-.62.286zm-1.371 5.981a.82.82 0 01-.53-.196l-7.351-6.29a.815.815 0 111.06-1.24l7.352 6.29a.815.815 0 01-.53 1.436zm-1.582 7.319a.81.81 0 01-.62-.286l-6.977-8.224a.809.809 0 01.098-1.15.816.816 0 011.15.097l6.977 8.225a.809.809 0 01-.628 1.338zm-4.202 5.988a.83.83 0 01-.735-.457l-5.066-10.296a.818.818 0 01.375-1.094.82.82 0 011.093.376l5.067 10.296a.818.818 0 01-.375 1.094.92.92 0 01-.36.081zm-7.98.106a.812.812 0 01-.8-.661L63.645 81.98a.81.81 0 01.645-.954.81.81 0 01.954.644l1.959 10.03a.81.81 0 01-.645.954c-.049.017-.098.017-.155.017zm-6.519-2.211a.819.819 0 01-.808-.726l-1.036-9.114a.822.822 0 01.718-.906.807.807 0 01.906.719l1.036 9.113a.822.822 0 01-.718.906c-.04.008-.073.008-.098.008zm-5.605-.824a.815.815 0 01-.75-.49l-4.325-9.97a.817.817 0 01.424-1.077.817.817 0 011.077.424l4.325 9.97a.817.817 0 01-.751 1.143zm-3.672 1.452a.83.83 0 01-.612-.27l-6.813-7.611a.814.814 0 111.216-1.086l6.813 7.613a.814.814 0 01-.065 1.15.835.835 0 01-.539.204zm-3.41 3.076a.828.828 0 01-.588-.245l-6.706-6.886a.812.812 0 01.016-1.15.813.813 0 011.15.016l6.707 6.886c.31.327.31.84-.016 1.15a.763.763 0 01-.563.23zM31.514 83.81a.822.822 0 01-.808-.694l-1.42-9.408a.814.814 0 01.686-.93.816.816 0 01.93.686l1.42 9.407a.814.814 0 01-.686.93c-.04.008-.081.008-.122.008zm-3.908-1.78a.819.819 0 01-.8-.644l-1.77-8.2a.818.818 0 011.6-.342l1.77 8.2a.818.818 0 01-.628.97 1.126 1.126 0 01-.172.017zm-4.276-1.125a.82.82 0 01-.774-.563l-2.448-7.563a.817.817 0 01.522-1.028.817.817 0 011.028.522l2.448 7.563a.817.817 0 01-.775 1.069z" fill="#231F20"/></symbol><symbol viewBox="0 0 100 101" fill="none" id="table" xmlns="http://www.w3.org/2000/svg"><path d="M23.417 8.339s-35.673 25.386-18.96 61.379c16.714 35.993 85.54 31.812 93.379-3.213 7.846-35.026-14.857-46.92-39.978-43.06C32.729 27.3 23.417 8.34 23.417 8.34z" fill="#6DC3CC"/><path d="M73.534 26.916c-.07 0-.14-.008-.21-.015L42.72 21.278a1.162 1.162 0 01-.616-.328c-.43-.429-1.607-2.137 1.248-6.13 1.941-2.722 5.139-3.182 7.471-3.525 1.037-.149 2.012-.289 2.55-.578.585-.311.258-1.7-.163-3.22-.235-.858-.46-1.67-.46-2.364 0-1.31.725-2.737 1.895-3.735 1.372-1.162 3.22-1.623 5.21-1.295 1.536.257 2.713 1.045 3.4 2.285 1.021 1.825.92 4.648-.265 7.557-.43 1.053-.406 1.404-.36 1.521.196.445 1.771 1.06 3.589 1.778.764.297 1.637.64 2.62 1.046 5.717 2.355 6.317 8.64 5.834 11.636a1.176 1.176 0 01-.484.772c-.18.148-.413.218-.655.218zM43.858 19.11l28.615 5.257c.04-2.067-.42-6.224-4.5-7.9-.975-.398-1.832-.741-2.581-1.03-2.87-1.123-4.313-1.685-4.89-3.034-.46-1.068-.11-2.23.343-3.33.889-2.184 1.045-4.36.39-5.53-.343-.616-.913-.975-1.747-1.115-1.661-.28-2.722.265-3.315.772-.733.624-1.068 1.443-1.068 1.95 0 .382.195 1.068.374 1.74.515 1.87 1.303 4.694-.998 5.91-.897.477-2.067.648-3.307.828-2.13.312-4.54.655-5.904 2.565-1.13 1.552-1.373 2.473-1.412 2.917z" fill="#231F20"/><path d="M70.812 84.7a1.88 1.88 0 01-.203-.016l-46.498-8.049a1.173 1.173 0 01-.952-1.357L33.93 15.28a1.165 1.165 0 011.326-.952l8.423 1.248a1.16 1.16 0 01.983 1.326 1.163 1.163 0 01-1.326.983L36.028 16.8 25.663 74.52l44.19 7.644 10.302-57.87-6.457-1.333a1.166 1.166 0 11.476-2.285l7.564 1.567c.617.133 1.022.726.913 1.35l-10.7 60.13c-.086.57-.585.976-1.139.976z" fill="#231F20"/><path d="M76.201 95.946a1.92 1.92 0 01-.203-.016L15.664 85.503a1.164 1.164 0 01-.951-1.342L27.8 5.211a1.13 1.13 0 01.125-.367c.444-.81 1.825-2.121 4.235-1.825 2.254.273 21.4 3.62 22.22 3.76.639.109 1.06.717.95 1.357a1.168 1.168 0 01-1.356.951c-.195-.031-19.904-3.478-22.095-3.743-1.076-.133-1.615.296-1.817.522L17.209 83.405l58.048 10.037c4.945-26.914 13.992-76.244 14.171-77.546-.117-.297-1.279-.944-2.37-1.272L62.38 10.522a1.168 1.168 0 01-.96-1.35c.11-.639.71-1.06 1.35-.958l24.747 4.11a.816.816 0 01.132.03c.741.212 4.43 1.405 4.11 3.846-.202 1.583-13.812 75.651-14.397 78.802a1.2 1.2 0 01-1.162.944z" fill="#231F20"/><path d="M70.024 101c-1.255 0-2.222-.18-2.472-.227-1.794-.226-50.811-6.27-53.993-6.605-1.693-.18-2.87-.71-3.51-1.584-.452-.616-.53-1.287-.46-1.739l10.225-80.081a1.17 1.17 0 011.162-1.022h6.613c.648 0 1.17.523 1.17 1.17 0 .647-.522 1.17-1.17 1.17h-5.584l-10.1 79.075c.04.117.453.53 1.888.679 3.244.335 52.012 6.356 54.087 6.613.038 0 .07.008.109.016.015 0 1.536.32 3.236.117l1.178-4.563a1.18 1.18 0 011.427-.842c.624.164.999.803.843 1.427L73.3 99.9c-.11.429-.453.756-.89.85-.834.187-1.66.25-2.386.25zM11.89 91.25v.001z" fill="#231F20"/><path d="M66.312 68.47c-.078 0-.148-.007-.226-.023L40.863 63.54a1.182 1.182 0 01-.928-1.372 1.182 1.182 0 011.373-.928l25.222 4.905c.632.125 1.045.741.928 1.373-.109.561-.6.951-1.146.951zm1.684-9.148c-.078 0-.148-.008-.226-.024l-25.222-4.905a1.182 1.182 0 01-.928-1.373 1.182 1.182 0 011.373-.928l25.222 4.906a1.18 1.18 0 01.928 1.372c-.11.57-.6.952-1.147.952zm1.904-10.6c-.078 0-.149-.008-.227-.023l-25.222-4.906a1.182 1.182 0 01-.928-1.373 1.186 1.186 0 011.373-.928l25.222 4.906c.632.125 1.045.741.928 1.373-.11.57-.6.951-1.146.951zm2.168-9.211c-.078 0-.148-.008-.226-.023l-25.223-4.906a1.182 1.182 0 01-.928-1.372 1.182 1.182 0 011.373-.928l25.222 4.905c.632.125 1.045.741.928 1.373-.109.561-.6.951-1.146.951zm-36.024 23.57c-.375 0-.726-.18-.952-.484l-1.77-2.456a1.163 1.163 0 01.265-1.63 1.164 1.164 0 011.63.265l.788 1.092 2.066-3.096a1.17 1.17 0 111.95 1.294l-3.002 4.5c-.211.32-.57.515-.952.523-.016-.008-.016-.008-.023-.008zm1.263-9.055c-.374 0-.725-.179-.952-.483l-1.77-2.457a1.163 1.163 0 01.265-1.63 1.157 1.157 0 011.63.265l.788 1.092 2.067-3.096a1.17 1.17 0 111.95 1.294l-3.003 4.5c-.21.32-.57.515-.952.523-.007-.008-.015-.008-.023-.008zm2.09-10.638c-.374 0-.725-.18-.951-.484l-1.77-2.457a1.164 1.164 0 01.265-1.63 1.163 1.163 0 011.63.266l.787 1.084 2.067-3.097a1.17 1.17 0 111.95 1.295l-3.003 4.5c-.21.32-.57.515-.951.523h-.024zm1.693-9.358c-.375 0-.726-.18-.952-.484l-1.77-2.457a1.164 1.164 0 01.265-1.63 1.163 1.163 0 011.63.265l.788 1.092 2.066-3.096a1.17 1.17 0 111.95 1.295l-3.002 4.5c-.211.32-.57.514-.952.522-.008-.008-.016-.008-.023-.008zm26.649 66.37a.783.783 0 01-.624-1.248l3.954-5.25a.782.782 0 011.092-.155.782.782 0 01.156 1.092l-3.954 5.249a.77.77 0 01-.624.312zm-3.899-.742a.782.782 0 01-.624-1.248l3.954-5.248a.782.782 0 011.092-.156.782.782 0 01.156 1.092l-3.954 5.248a.79.79 0 01-.624.312zm-4.516-.304a.781.781 0 01-.608-1.271l4.78-5.896a.781.781 0 111.217.982l-4.78 5.897a.771.771 0 01-.609.288zm-3.946-.483a.8.8 0 01-.5-.18.787.787 0 01-.101-1.099l5.046-6.044a.787.787 0 011.1-.102.787.787 0 01.101 1.1l-5.046 6.044a.772.772 0 01-.6.281zm-3.868-.476a.75.75 0 01-.523-.203.778.778 0 01-.055-1.1l5.553-6.145a.778.778 0 111.154 1.045l-5.553 6.146a.765.765 0 01-.577.257zm-4.493-.624a.777.777 0 01-.554-1.326l5.896-5.896a.777.777 0 111.1 1.1l-5.896 5.896a.767.767 0 01-.546.226zm-4.874-.741a.785.785 0 01-.507-.187.778.778 0 01-.078-1.1l5.537-6.403a.778.778 0 111.178 1.022l-5.538 6.403a.806.806 0 01-.592.265zm-4.945-.615a.8.8 0 01-.5-.18.78.78 0 01-.093-1.1l5.569-6.636a.779.779 0 011.1-.094.78.78 0 01.093 1.1l-5.569 6.637a.79.79 0 01-.6.273zm-4.5-.563a.816.816 0 01-.5-.18.787.787 0 01-.1-1.099l5.669-6.832a.787.787 0 011.1-.101.787.787 0 01.101 1.1l-5.67 6.832a.798.798 0 01-.6.28zm-5.319-.529a.816.816 0 01-.5-.18.786.786 0 01-.1-1.1l5.966-7.175a.78.78 0 011.1-.1.787.787 0 01.1 1.099l-5.966 7.175a.772.772 0 01-.6.28zm-3.954-.859a.778.778 0 01-.577-1.295l6.176-6.964a.771.771 0 011.1-.063c.32.289.351.78.062 1.1l-6.177 6.965a.781.781 0 01-.584.257zm-4.391-.047a.778.778 0 01-.585-1.295l6.746-7.58a.778.778 0 111.162 1.037l-6.746 7.58a.753.753 0 01-.577.258zm-4.672-.592a.778.778 0 01-.585-1.295l6.926-7.767a.778.778 0 111.162 1.037l-6.926 7.768a.777.777 0 01-.577.257zM10.9 90.627a.75.75 0 01-.523-.202.778.778 0 01-.055-1.1l4.96-5.506a.777.777 0 111.155 1.045l-4.96 5.506a.777.777 0 01-.578.257zm.646-5.092a.778.778 0 01-.523-1.357l4.314-3.884a.778.778 0 111.045 1.154l-4.313 3.884a.786.786 0 01-.523.203zm.757-5.936a.79.79 0 01-.624-.312.782.782 0 01.156-1.092l4.71-3.54a.782.782 0 011.093.155.782.782 0 01-.156 1.092l-4.711 3.54a.751.751 0 01-.468.157zm1.077-6.2a.757.757 0 01-.617-.304.78.78 0 01.14-1.092l4.446-3.409a.78.78 0 01.952 1.233l-4.446 3.408a.799.799 0 01-.476.164zm.397-5.319a.806.806 0 01-.624-.304.78.78 0 01.148-1.092l5.288-4.024a.781.781 0 011.092.148.781.781 0 01-.148 1.092l-5.288 4.024a.803.803 0 01-.468.156zm.561-4.414a.757.757 0 01-.616-.304.78.78 0 01.14-1.092l5.819-4.477a.78.78 0 01.951 1.232l-5.818 4.477a.782.782 0 01-.476.164zm.82-6.442a.783.783 0 01-.617-.297.783.783 0 01.133-1.1l5.678-4.484a.783.783 0 11.967 1.232L15.64 57.06a.787.787 0 01-.483.163zm.748-5.842a.788.788 0 01-.64-.335.775.775 0 01.188-1.084l6.278-4.407a.775.775 0 011.084.187.782.782 0 01-.187 1.084l-6.278 4.407a.726.726 0 01-.445.148zm.515-4.508a.786.786 0 01-.515-1.373l6.396-5.521a.779.779 0 111.021 1.178l-6.395 5.521a.754.754 0 01-.507.195zm.827-6.013a.784.784 0 01-.468-1.412l6.777-4.999a.784.784 0 011.092.164.784.784 0 01-.164 1.092l-6.777 5a.715.715 0 01-.46.155zm.639-5.023a.786.786 0 01-.593-.273.778.778 0 01.078-1.1l7.168-6.2a.778.778 0 111.022 1.178l-7.168 6.2a.726.726 0 01-.507.195zm.57-4.445a.779.779 0 01-.507-1.373l7.346-6.239a.78.78 0 111.014 1.186l-7.346 6.24a.785.785 0 01-.507.186zm.584-4.601a.761.761 0 01-.546-.226.777.777 0 01-.015-1.1l6.972-7.12a.777.777 0 111.115 1.084l-6.972 7.12a.74.74 0 01-.554.242zm.539-4.174a.777.777 0 01-.554-1.326l7.963-7.97a.777.777 0 111.1 1.1l-7.963 7.97a.78.78 0 01-.546.226zm.592-4.647a.774.774 0 01-.592-.273.78.78 0 01.093-1.1l7.417-6.27a.78.78 0 111.006 1.193l-7.417 6.27a.822.822 0 01-.507.18z" fill="#231F20"/></symbol></svg>